<svg width="512" height="512" viewBox="0 0 512 512" fill="none" xmlns="http://www.w3.org/2000/svg">
<path d="M183.877 169H145.579L204.715 126.537L183.877 169ZM208.078 124.225L294.649 96.7418L187.004 167.167L208.078 124.225ZM308.223 49.6014L300.435 92.8065L212.749 120.643L308.223 49.6014ZM308.742 46.7223L217.242 114.807L314.202 16.4316L308.742 46.7223ZM316.468 3.86346L314.831 12.9447L206.716 122.638L153.174 161.084L316.468 3.86346Z" fill="#3CE78E" stroke="#26A061" stroke-width="2"/>
<path d="M244.248 319.939L243.525 319.659L243.074 320.289L237.981 327.402L208.282 302.461L194.83 272.007L254 317.064V323.715L244.248 319.939ZM191.694 269.859L204.806 299.543L169.459 269.859H191.694ZM167.078 267.859L115.231 224.191L159.498 215.303L179.426 242.085L190.811 267.859H167.078ZM179.737 239.153L161.672 214.874L185.212 210.265L179.737 239.153ZM186.982 211.666L251.142 312.374L193.157 268.219L181.336 241.459L186.982 211.666ZM244.249 322.084L254 325.859V340.854L239.517 328.692L244.249 322.084Z" fill="#3CE78E" stroke="#26A061" stroke-width="2"/>
<path d="M263 191.756V165.348L278.344 180.099L276.767 212.466L263 191.756ZM278.641 215.105L280.257 181.937L323.52 223.526L337.982 264.996L278.641 215.105ZM340.946 267.421L326.707 226.589L410.495 307.134L340.946 267.421ZM341.017 269.765L412.631 310.657L338.688 304.897L341.017 269.765ZM336.823 302.804L282.31 220.803L339.094 268.543L336.823 302.804Z" fill="#3CE78E" stroke="#26A061" stroke-width="2"/>
<path d="M222.56 465.593L301.04 367.11L278.658 414.654L247.849 454.805L222.56 465.593ZM249.276 456.231L280.102 416.059L321.996 405.103L211.655 508.088L220.178 468.784L248.875 456.542L249.116 456.439L249.276 456.231ZM366.477 363.587L323.354 403.835L323.288 403.647L311.495 370.047L311.478 369.999L311.457 369.953L307.195 360.875L366.477 363.587ZM281.333 413.669L305.585 362.151L309.625 370.757L321.042 403.285L281.333 413.669ZM368.522 361.678L313.841 359.177L386.749 344.667L368.522 361.678Z" fill="#3CE78E" stroke="#26A061" stroke-width="2"/>
<path d="M208.146 108.157L206.426 122.846L153.174 161.084L208.146 108.157ZM314.202 16.4316L308.742 46.7223L217.242 114.807L314.202 16.4316ZM294.649 96.7418L187.004 167.167L208.078 124.225L294.649 96.7418Z" fill="#30C879" stroke="#26A061" stroke-width="2"/>
<path d="M254 325.859V340.854L239.517 328.692L244.249 322.084L254 325.859ZM251.142 312.374L193.644 268.59L207.515 243.895L251.142 312.374ZM145.478 218.128L185.582 210.195L191.067 266.063L145.478 218.128ZM169.459 269.859H191.694L204.806 299.543L169.459 269.859Z" fill="#30C879" stroke="#26A061" stroke-width="2"/>
<path d="M323.52 223.526L337.982 264.996L278.641 215.105L280.257 181.937L323.52 223.526ZM341.017 269.765L412.631 310.657L338.688 304.897L341.017 269.765Z" fill="#30C879" stroke="#26A061" stroke-width="2"/>
<path d="M366.477 363.587L323.913 403.313L311.489 370.028L311.474 369.99L311.457 369.953L307.195 360.875L366.477 363.587ZM250.23 430.871L301.04 367.11L278.658 414.654L263.608 434.269L250.23 430.871ZM264.448 436.459L285.738 438.943L253.051 469.451L249.572 455.845L264.448 436.459Z" fill="#30C879" stroke="#26A061" stroke-width="2"/>
<path d="M187.47 209L256 316.569V325.174V343L239.165 328.862L208.461 303.078L167.713 268.859L114 223.619L160.922 214.197L187.47 209Z" fill="#0C3821" fill-opacity="0.5"/>
<path d="M262 192.058V163L279.365 179.693L324.386 222.971L417 312L337.625 305.817L277.618 215.552L262 192.058Z" fill="#0C3821" fill-opacity="0.5"/>
<path d="M142 170L317.528 1L315.288 13.4265L309.184 47.2886L300.84 93.5772L184.028 170H142Z" fill="#0C3821" fill-opacity="0.5"/>
<path fill-rule="evenodd" clip-rule="evenodd" d="M390 343L305.586 359.8L219.31 468.067L248.483 455.622L279.517 415.178L322.345 403.978L310.552 370.378L305.586 359.8L368.897 362.697L390 343Z" fill="#0C3821" fill-opacity="0.5"/>
<path d="M219.31 468.067L210 511L368.897 362.697L305.586 359.8L310.552 370.378L322.345 403.978L279.517 415.178L248.483 455.622L219.31 468.067Z" fill="#0C3821" fill-opacity="0.5"/>
</svg>
