<svg width="1000" height="1000" viewBox="0 0 1000 1000" fill="none" xmlns="http://www.w3.org/2000/svg">
<g clip-path="url(#clip0_4_95)">
<path d="M0 221H20.8C41.7 221 83.3 221 125 227.7C166.7 234.3 208.3 247.7 250 251C291.7 254.3 333.3 247.7 375 244.3C416.7 241 458.3 241 500 234.3C541.7 227.7 583.3 214.3 625 206C666.7 197.7 708.3 194.3 750 199.3C791.7 204.3 833.3 217.7 875 224.3C916.7 231 958.3 231 979.2 231H1000V99L979.2 102.3C958.3 105.7 916.7 112.3 875 112.3C833.3 112.3 791.7 105.7 750 99C708.3 92.3 666.7 85.7 625 87.3C583.3 89 541.7 99 500 105.7C458.3 112.3 416.7 115.7 375 114C333.3 112.3 291.7 105.7 250 105.7C208.3 105.7 166.7 112.3 125 109C83.3 105.7 41.7 92.3 20.8 85.7L0 79V221Z" fill="#FCAD49"/>
<path d="M0 309H20.8C41.7 309 83.3 309 125 315.7C166.7 322.3 208.3 335.7 250 339C291.7 342.3 333.3 335.7 375 332.3C416.7 329 458.3 329 500 322.3C541.7 315.7 583.3 302.3 625 294C666.7 285.7 708.3 282.3 750 287.3C791.7 292.3 833.3 305.7 875 312.3C916.7 319 958.3 319 979.2 319H1000V187L979.2 190.3C958.3 193.7 916.7 200.3 875 200.3C833.3 200.3 791.7 193.7 750 187C708.3 180.3 666.7 173.7 625 175.3C583.3 177 541.7 187 500 193.7C458.3 200.3 416.7 203.7 375 202C333.3 200.3 291.7 193.7 250 193.7C208.3 193.7 166.7 200.3 125 197C83.3 193.7 41.7 180.3 20.8 173.7L0 167V309Z" fill="#FCAD49"/>
<path d="M0 519.034L20.8 525.734C41.7 532.334 83.3 545.734 125 559.034C166.7 572.334 208.3 585.734 250 582.334C291.7 579.034 333.3 559.034 375 560.734C416.7 562.334 458.3 585.734 500 589.034C541.7 592.334 583.3 575.734 625 569.034C666.7 562.334 708.3 565.734 750 564.034C791.7 562.334 833.3 555.734 875 550.734C916.7 545.734 958.3 542.334 979.2 540.734L1000 539.034V287.034H979.2C958.3 287.034 916.7 287.034 875 280.334C833.3 273.734 791.7 260.334 750 255.334C708.3 250.334 666.7 253.734 625 262.034C583.3 270.334 541.7 283.734 500 290.334C458.3 297.034 416.7 297.034 375 300.334C333.3 303.734 291.7 310.334 250 307.034C208.3 303.734 166.7 290.334 125 283.734C83.3 277.034 41.7 277.034 20.8 277.034H0V519.034Z" fill="#FFF75E"/>
<path d="M0 711L20.8 719.3C41.7 727.7 83.3 744.3 125 756C166.7 767.7 208.3 774.3 250 781C291.7 787.7 333.3 794.3 375 792.7C416.7 791 458.3 781 500 774.3C541.7 767.7 583.3 764.3 625 757.7C666.7 751 708.3 741 750 727.7C791.7 714.3 833.3 697.7 875 702.7C916.7 707.7 958.3 734.3 979.2 747.7L1000 761V479L979.2 480.7C958.3 482.3 916.7 485.7 875 490.7C833.3 495.7 791.7 502.3 750 504C708.3 505.7 666.7 502.3 625 509C583.3 515.7 541.7 532.3 500 529C458.3 525.7 416.7 502.3 375 500.7C333.3 499 291.7 519 250 522.3C208.3 525.7 166.7 512.3 125 499C83.3 485.7 41.7 472.3 20.8 465.7L0 459V711Z" fill="#7AFF75"/>
<path d="M0 642L20.8 650.3C41.7 658.7 83.3 675.3 125 687C166.7 698.7 208.3 705.3 250 712C291.7 718.7 333.3 725.3 375 723.7C416.7 722 458.3 712 500 705.3C541.7 698.7 583.3 695.3 625 688.7C666.7 682 708.3 672 750 658.7C791.7 645.3 833.3 628.7 875 633.7C916.7 638.7 958.3 665.3 979.2 678.7L1000 692V410L979.2 411.7C958.3 413.3 916.7 416.7 875 421.7C833.3 426.7 791.7 433.3 750 435C708.3 436.7 666.7 433.3 625 440C583.3 446.7 541.7 463.3 500 460C458.3 456.7 416.7 433.3 375 431.7C333.3 430 291.7 450 250 453.3C208.3 456.7 166.7 443.3 125 430C83.3 416.7 41.7 403.3 20.8 396.7L0 390V642Z" fill="#7AFF75"/>
<path d="M0 821L20.8 827.7C41.7 834.3 83.3 847.7 125 859.3C166.7 871 208.3 881 250 882.7C291.7 884.3 333.3 877.7 375 876C416.7 874.3 458.3 877.7 500 879.3C541.7 881 583.3 881 625 874.3C666.7 867.7 708.3 854.3 750 842.7C791.7 831 833.3 821 875 829.3C916.7 837.7 958.3 864.3 979.2 877.7L1000 891V759L979.2 745.7C958.3 732.3 916.7 705.7 875 700.7C833.3 695.7 791.7 712.3 750 725.7C708.3 739 666.7 749 625 755.7C583.3 762.3 541.7 765.7 500 772.3C458.3 779 416.7 789 375 790.7C333.3 792.3 291.7 785.7 250 779C208.3 772.3 166.7 765.7 125 754C83.3 742.3 41.7 725.7 20.8 717.3L0 709V821Z" fill="#6891FF"/>
<path d="M0 749.211L20.8 755.911C41.7 762.511 83.3 775.911 125 787.511C166.7 799.211 208.3 809.211 250 810.911C291.7 812.511 333.3 805.911 375 804.211C416.7 802.511 458.3 805.911 500 807.511C541.7 809.211 583.3 809.211 625 802.511C666.7 795.911 708.3 782.511 750 770.911C791.7 759.211 833.3 749.211 875 757.511C916.7 765.911 958.3 792.511 979.2 805.911L1000 819.211V687.211L979.2 673.911C958.3 660.511 916.7 633.911 875 628.911C833.3 623.911 791.7 640.511 750 653.911C708.3 667.211 666.7 677.211 625 683.911C583.3 690.511 541.7 693.911 500 700.511C458.3 707.211 416.7 717.211 375 718.911C333.3 720.511 291.7 713.911 250 707.211C208.3 700.511 166.7 693.911 125 682.211C83.3 670.511 41.7 653.911 20.8 645.511L0 637.211V749.211Z" fill="#6891FF"/>
<g clip-path="url(#clip1_4_95)">
<path d="M376.402 925L802 500L618.352 316.968L559.634 375.488L684.148 500L258.134 925H376.402Z" fill="black"/>
<path d="M624.598 75L199 500L381.816 682.202H382.648L440.95 624.097L316.852 500L741.617 75H624.598Z" fill="black"/>
</g>
<path d="M0 81L20.8 87.7C41.7 94.3 83.3 107.7 125 111C166.7 114.3 208.3 107.7 250 107.7C291.7 107.7 333.3 114.3 375 116C416.7 117.7 458.3 114.3 500 107.7C541.7 101 583.3 91 625 89.3C666.7 87.7 708.3 94.3 750 101C791.7 107.7 833.3 114.3 875 114.3C916.7 114.3 958.3 107.7 979.2 104.3L1000 101V0H979.2C958.3 0 916.7 0 875 0C833.3 0 791.7 0 750 0C708.3 0 666.7 0 625 0C583.3 0 541.7 0 500 0C458.3 0 416.7 0 375 0C333.3 0 291.7 0 250 0C208.3 0 166.7 0 125 0C83.3 0 41.7 0 20.8 0H0V81Z" fill="#FF6161"/>
<path d="M0 1001H20.8C41.7 1001 83.3 1001 125 1001C166.7 1001 208.3 1001 250 1001C291.7 1001 333.3 1001 375 1001C416.7 1001 458.3 1001 500 1001C541.7 1001 583.3 1001 625 1001C666.7 1001 708.3 1001 750 1001C791.7 1001 833.3 1001 875 1001C916.7 1001 958.3 1001 979.2 1001H1000V889L979.2 875.7C958.3 862.3 916.7 835.7 875 827.3C833.3 819 791.7 829 750 840.7C708.3 852.3 666.7 865.7 625 872.3C583.3 879 541.7 879 500 877.3C458.3 875.7 416.7 872.3 375 874C333.3 875.7 291.7 882.3 250 880.7C208.3 879 166.7 869 125 857.3C83.3 845.7 41.7 832.3 20.8 825.7L0 819V1001Z" fill="#E653FF"/>
</g>
<defs>
<clipPath id="clip0_4_95">
<rect width="1000" height="1000" fill="white"/>
</clipPath>
<clipPath id="clip1_4_95">
<rect width="603" height="850" fill="white" transform="translate(199 75)"/>
</clipPath>
</defs>
</svg>
